<svg width="40" height="40" viewBox="0 0 40 40" fill="none" xmlns="http://www.w3.org/2000/svg">
<path d="M34.2617 9.32422L30.1016 5.16797C29.5938 4.66016 28.9141 4.375 28.1953 4.375C27.4766 4.375 26.7969 4.65625 26.2891 5.16797L21.8086 9.64062C21.3008 10.1484 21.0156 10.832 21.0156 11.5508C21.0156 12.2734 21.2969 12.9492 21.8086 13.4609L25.3086 16.9648C24.5113 18.8226 23.3656 20.5105 21.9336 21.9375C20.5 23.3789 18.8242 24.5156 16.9648 25.3203L13.4648 21.8164C12.957 21.3086 12.2773 21.0234 11.5586 21.0234C11.2041 21.0221 10.8529 21.0916 10.5255 21.2278C10.1982 21.3639 9.90134 21.564 9.65234 21.8164L5.16797 26.2891C4.66016 26.7969 4.375 27.4805 4.375 28.1992C4.375 28.9219 4.65625 29.5977 5.16797 30.1094L9.32422 34.2656C10.1914 35.1328 11.3867 35.6289 12.6133 35.6289C12.8672 35.6289 13.1133 35.6094 13.3633 35.5664C18.5352 34.7148 23.668 31.9609 27.8125 27.8203C31.9531 23.6719 34.7031 18.5391 35.5625 13.3633C35.8086 11.8945 35.3164 10.3828 34.2617 9.32422ZM32.793 12.8984C32.0312 17.5039 29.5547 22.0977 25.8242 25.8281C22.0938 29.5586 17.5039 32.0352 12.8984 32.7969C12.3203 32.8945 11.7266 32.6992 11.3047 32.2812L7.22266 28.1992L11.5508 23.8672L16.2305 28.5547L16.2656 28.5898L17.1094 28.2773C19.6677 27.3367 21.9909 25.8511 23.9179 23.9234C25.845 21.9956 27.3298 19.6719 28.2695 17.1133L28.582 16.2695L23.8633 11.5547L28.1914 7.22266L32.2734 11.3047C32.6953 11.7266 32.8906 12.3203 32.793 12.8984Z" fill="#D2E5F1"/>
</svg>
