<svg width="100" height="100" viewBox="0 0 100 100" fill="none" xmlns="http://www.w3.org/2000/svg">
<path d="M71.1719 26.4844C74.9257 26.4844 77.9688 23.4413 77.9688 19.6875C77.9688 15.9337 74.9257 12.8906 71.1719 12.8906C67.4181 12.8906 64.375 15.9337 64.375 19.6875C64.375 23.4413 67.4181 26.4844 71.1719 26.4844Z" fill="#1D3783"/>
<path d="M73.3594 28.2812C73.2032 28.2812 72.5001 28.3594 72.5001 28.3594C67.1094 29.2969 62.8907 33.9844 62.8907 39.6875C62.8907 39.7656 62.8126 40.7031 62.8907 40.9375C62.8907 46.0156 63.5157 50.9375 64.6094 55.625C64.9219 57.0312 65.8594 58.2812 66.8751 59.1406V90.625C66.8751 92.9687 68.8282 94.9219 71.1719 94.9219C73.5157 94.9219 75.4688 92.9687 75.4688 90.625V62.2656C75.0001 62.3437 74.6094 62.4219 74.1407 62.4219C72.5782 62.4219 71.3282 61.7187 70.4688 60.7031C69.9219 59.8437 69.4532 58.75 69.4532 57.7344V38.5156C69.4532 37.9687 69.7657 37.6562 70.3126 37.6562C70.8594 37.6562 71.1719 37.9687 71.1719 38.5156V57.6562C71.1719 59.2969 72.5782 60.625 74.1407 60.625C75.7032 60.625 77.1094 59.2187 77.1094 57.6562C77.1094 57.6562 77.1094 32.1094 77.1094 32.0312C77.1876 29.9219 75.4688 28.2812 73.3594 28.2812Z" fill="#1D3783"/>
<path d="M25.7812 26.1719C29.4488 26.1719 32.4219 23.1988 32.4219 19.5312C32.4219 15.8637 29.4488 12.8906 25.7812 12.8906C22.1137 12.8906 19.1406 15.8637 19.1406 19.5312C19.1406 23.1988 22.1137 26.1719 25.7812 26.1719Z" fill="#1D3783"/>
<path d="M49.0625 29.1406L37.7344 33.2812L26.7969 28.2031C26.1719 27.9687 25.5469 27.8125 24.8437 27.8125C24.2187 27.8125 22.1094 27.8125 21.5625 27.8125C18.8281 27.8125 16.6406 30.0781 16.5625 32.8125V53.4375C16.5625 54.8438 17.1094 56.0938 18.0469 57.0313C18.0469 57.0313 19.8437 90.7031 19.8437 90.8594C19.8437 93.125 21.6406 94.9219 23.9062 94.9219C26.0156 94.9219 27.8125 93.2812 27.9687 91.1719V90.9375V90.8594L28.9844 56.25C29.5312 55.4688 29.8438 54.4531 29.8438 53.5156V36.0156L36.4062 39.0625C37.1094 39.4531 37.9688 39.4531 38.6719 39.2188L51.1719 34.6875C52.7344 34.0625 53.4375 32.5 52.9688 30.9375C52.1875 29.375 50.5469 28.5938 49.0625 29.1406Z" fill="#1D3783"/>
<path d="M44.4531 4.0625C39.5313 4.0625 35.5469 6.17188 35.5469 8.67188C35.5469 9.6875 36.1719 10.625 37.2656 11.4063L34.8438 15.8594L40.5469 12.8125C41.7188 13.125 43.0469 13.2812 44.4531 13.2812C49.375 13.2812 53.3594 11.1719 53.3594 8.67188C53.3594 6.09375 49.375 4.0625 44.4531 4.0625Z" fill="#1D3783"/>
</svg>
