<svg width="100" height="100" viewBox="0 0 100 100" fill="none" xmlns="http://www.w3.org/2000/svg">
<path d="M33.0605 11.0375C40.2414 11.0375 46.0629 16.859 46.0629 24.0398C46.0629 31.2207 40.2414 37.0422 33.0605 37.0422C25.8797 37.0422 20.0582 31.2207 20.0582 24.0398C20.0582 16.859 25.8793 11.0375 33.0605 11.0375ZM12.1102 59.7699C12.1102 58.7938 12.7375 58.1316 13.7484 58.1316C14.7594 58.1316 15.3867 58.759 15.3867 59.7699V96.0926H51.1168V59.7699C51.1168 58.7938 51.7441 58.1316 52.7551 58.1316C53.7312 58.1316 54.3934 58.759 54.3934 59.7699V96.0926H65.7574V56.4934C65.7574 47.5348 58.4371 40.2492 49.5133 40.2492H46.2367L36.6855 55.0988L35.5352 43.9789L37.1039 40.2141H30.0625L31.6312 43.9789L30.4113 55.1684L20.8598 40.2492H17.0254C8.0668 40.2492 0.78125 47.5695 0.78125 56.4934V96.093H12.1453V59.7703L12.1102 59.7699ZM97.6461 3.90625H63.9031C63.0293 3.90625 62.3305 4.60547 62.3305 5.47891V39.2508C62.3305 40.1246 63.0297 40.8234 63.9031 40.8234H97.6461C98.5199 40.8234 99.2188 40.1242 99.2188 39.2508V5.47891C99.2188 4.60547 98.5195 3.90625 97.6461 3.90625ZM97.4711 22.3285H93.073C91.7043 22.0809 90.7285 20.1293 91.777 19.2848C92.7234 18.5855 93.3496 17.4645 93.3496 16.2121C93.3496 14.1148 91.675 12.4402 89.5777 12.4402C87.4805 12.4402 85.8059 14.1148 85.8059 16.2121C85.8059 17.4645 86.432 18.5859 87.3785 19.2848C88.4269 20.1586 87.4512 22.1535 85.9805 22.3285H80.7668V17.1148V17.0422C80.7668 15.6148 78.7715 14.5664 77.9414 15.5715C77.3152 16.4453 76.2668 17.0422 75.116 17.0422C73.1937 17.0422 71.6207 15.4695 71.6207 13.5469C71.6207 11.6242 73.1934 10.0516 75.116 10.0516C76.3102 10.0516 77.3152 10.6488 77.9414 11.5223C78.7859 12.5418 80.7668 11.4496 80.7668 10.0949V5.65391H97.4707V22.3285H97.4711ZM64.0777 22.4016H68.4465C69.8152 22.6492 70.791 24.6008 69.7426 25.4453C68.7961 26.1445 68.1699 27.2656 68.1699 28.518C68.1699 30.6152 69.8445 32.2898 71.9418 32.2898C74.0391 32.2898 75.7137 30.6152 75.7137 28.518C75.7137 27.2656 75.0875 26.1441 74.141 25.4453C73.0926 24.5715 74.0684 22.5473 75.5391 22.4016H80.7527V27.6152V27.6879C80.7527 29.1152 82.748 30.1637 83.5781 29.1586C84.2043 28.2848 85.2527 27.6879 86.4035 27.6879C88.3258 27.6879 89.8988 29.2605 89.8988 31.1832C89.8988 33.1055 88.3262 34.6785 86.4035 34.6785C85.2094 34.6785 84.2043 34.0813 83.5781 33.2078C82.7336 32.1883 80.7527 33.2805 80.7527 34.6352V39.077H64.0777V22.4016Z" fill="#1E3A8A"/>
</svg>
