<svg width="100" height="100" viewBox="0 0 100 100" fill="none" xmlns="http://www.w3.org/2000/svg">
<path d="M0 10V90H100V85H5V10H0ZM70 15C67.3478 15 64.8043 16.0536 62.9289 17.9289C61.0536 19.8043 60 22.3478 60 25C60 27.6522 61.0536 30.1957 62.9289 32.0711C64.8043 33.9464 67.3478 35 70 35C72.6522 35 75.1957 33.9464 77.0711 32.0711C78.9464 30.1957 80 27.6522 80 25C80 22.3478 78.9464 19.8043 77.0711 17.9289C75.1957 16.0536 72.6522 15 70 15ZM70 20C71.3261 20 72.5979 20.5268 73.5355 21.4645C74.4732 22.4021 75 23.6739 75 25C75 26.3261 74.4732 27.5979 73.5355 28.5355C72.5979 29.4732 71.3261 30 70 30C68.6739 30 67.4021 29.4732 66.4645 28.5355C65.5268 27.5979 65 26.3261 65 25C65 23.6739 65.5268 22.4021 66.4645 21.4645C67.4021 20.5268 68.6739 20 70 20ZM45 35C41.0218 35 37.2064 36.5804 34.3934 39.3934C31.5804 42.2064 30 46.0218 30 50C30 53.9782 31.5804 57.7936 34.3934 60.6066C37.2064 63.4197 41.0218 65 45 65C48.9782 65 52.7936 63.4197 55.6066 60.6066C58.4197 57.7936 60 53.9782 60 50C60 46.0218 58.4197 42.2064 55.6066 39.3934C52.7936 36.5804 48.9782 35 45 35ZM45 40C47.6522 40 50.1957 41.0536 52.0711 42.9289C53.9464 44.8043 55 47.3478 55 50C55 52.6522 53.9464 55.1957 52.0711 57.0711C50.1957 58.9464 47.6522 60 45 60C42.3478 60 39.8043 58.9464 37.9289 57.0711C36.0536 55.1957 35 52.6522 35 50C35 47.3478 36.0536 44.8043 37.9289 42.9289C39.8043 41.0536 42.3478 40 45 40ZM82.5 50C79.1848 50 76.0054 51.317 73.6612 53.6612C71.317 56.0054 70 59.1848 70 62.5C70 65.8152 71.317 68.9946 73.6612 71.3388C76.0054 73.683 79.1848 75 82.5 75C85.8152 75 88.9946 73.683 91.3388 71.3388C93.683 68.9946 95 65.8152 95 62.5C95 59.1848 93.683 56.0054 91.3388 53.6612C88.9946 51.317 85.8152 50 82.5 50ZM82.5 55C84.4891 55 86.3968 55.7902 87.8033 57.1967C89.2098 58.6032 90 60.5109 90 62.5C90 64.4891 89.2098 66.3968 87.8033 67.8033C86.3968 69.2098 84.4891 70 82.5 70C80.5109 70 78.6032 69.2098 77.1967 67.8033C75.7902 66.3968 75 64.4891 75 62.5C75 60.5109 75.7902 58.6032 77.1967 57.1967C78.6032 55.7902 80.5109 55 82.5 55ZM22.5 60C20.5109 60 18.6032 60.7902 17.1967 62.1967C15.7902 63.6032 15 65.5109 15 67.5C15 69.4891 15.7902 71.3968 17.1967 72.8033C18.6032 74.2098 20.5109 75 22.5 75C24.4891 75 26.3968 74.2098 27.8033 72.8033C29.2098 71.3968 30 69.4891 30 67.5C30 65.5109 29.2098 63.6032 27.8033 62.1967C26.3968 60.7902 24.4891 60 22.5 60ZM22.5 65C23.163 65 23.7989 65.2634 24.2678 65.7322C24.7366 66.2011 25 66.837 25 67.5C25 68.163 24.7366 68.7989 24.2678 69.2678C23.7989 69.7366 23.163 70 22.5 70C21.837 70 21.2011 69.7366 20.7322 69.2678C20.2634 68.7989 20 68.163 20 67.5C20 66.837 20.2634 66.2011 20.7322 65.7322C21.2011 65.2634 21.837 65 22.5 65Z" fill="#1E3A8A"/>
</svg>
