<svg width="100" height="100" viewBox="0 0 100 100" fill="none" xmlns="http://www.w3.org/2000/svg">
<g clip-path="url(#clip0_20_341)">
<path d="M50 6.25C41.3471 6.25 32.8885 8.81589 25.6938 13.6232C18.4992 18.4305 12.8916 25.2633 9.58029 33.2576C6.26896 41.2519 5.40256 50.0485 7.09066 58.5352C8.77877 67.0219 12.9455 74.8174 19.0641 80.9359C25.1826 87.0545 32.9782 91.2213 41.4648 92.9094C49.9515 94.5975 58.7482 93.7311 66.7424 90.4197C74.7367 87.1084 81.5695 81.5008 86.3768 74.3062C91.1841 67.1115 93.75 58.6529 93.75 50C93.75 38.3968 89.1407 27.2688 80.9359 19.0641C72.7312 10.8594 61.6032 6.25 50 6.25ZM50 87.5C42.5832 87.5 35.333 85.3007 29.1661 81.1801C22.9993 77.0596 18.1928 71.2029 15.3545 64.3506C12.5163 57.4984 11.7736 49.9584 13.2206 42.6841C14.6675 35.4098 18.239 28.728 23.4835 23.4835C28.728 18.239 35.4098 14.6675 42.6841 13.2206C49.9584 11.7736 57.4984 12.5162 64.3506 15.3545C71.2029 18.1928 77.0596 22.9993 81.1801 29.1661C85.3007 35.333 87.5 42.5832 87.5 50C87.5 59.9456 83.5491 69.4839 76.5165 76.5165C69.4839 83.5491 59.9456 87.5 50 87.5Z" fill="#1E3A8A"/>
<path d="M50 78.125C52.5888 78.125 54.6875 76.0263 54.6875 73.4375C54.6875 70.8487 52.5888 68.75 50 68.75C47.4112 68.75 45.3125 70.8487 45.3125 73.4375C45.3125 76.0263 47.4112 78.125 50 78.125Z" fill="#1E3A8A"/>
<path d="M53.125 25H48.4375C46.5897 24.9959 44.7592 25.3568 43.0512 26.0621C41.3432 26.7673 39.7913 27.803 38.4847 29.1097C37.178 30.4163 36.1423 31.9682 35.4371 33.6762C34.7318 35.3842 34.3709 37.2147 34.375 39.0625V40.625H40.625V39.0625C40.625 36.9905 41.4481 35.0034 42.9133 33.5383C44.3784 32.0731 46.3655 31.25 48.4375 31.25H53.125C55.197 31.25 57.1842 32.0731 58.6493 33.5383C60.1144 35.0034 60.9375 36.9905 60.9375 39.0625C60.9375 41.1345 60.1144 43.1217 58.6493 44.5868C57.1842 46.0519 55.197 46.875 53.125 46.875H46.875V60.9375H53.125V53.125C56.8546 53.125 60.4315 51.6434 63.0687 49.0062C65.706 46.369 67.1875 42.7921 67.1875 39.0625C67.1875 35.3329 65.706 31.7561 63.0687 29.1188C60.4315 26.4816 56.8546 25 53.125 25Z" fill="#1E3A8A"/>
</g>
<defs>
<clipPath id="clip0_20_341">
<rect width="100" height="100" fill="white"/>
</clipPath>
</defs>
</svg>
