<svg width="100" height="100" viewBox="0 0 100 100" fill="none" xmlns="http://www.w3.org/2000/svg">
<g clip-path="url(#clip0_20_374)">
<path d="M50 8.33325C41.1594 8.33325 32.681 11.8451 26.4298 18.0964C20.1786 24.3476 16.6667 32.826 16.6667 41.6666V49.5832C15.4097 50.6784 14.3913 52.0203 13.6745 53.5255C12.9577 55.0307 12.558 56.6671 12.5 58.3333C12.5949 60.7493 13.4174 63.0803 14.8598 65.0208C16.3022 66.9614 18.2972 68.4209 20.5833 69.2083C26 82.1666 36.875 91.6666 50 91.6666H62.5V83.3333H50C40.5833 83.3333 32.0417 76.2499 27.75 65.0416L26.875 62.7499L24.4167 62.4999C23.4155 62.3584 22.5 61.8577 21.8407 61.0911C21.1814 60.3245 20.8234 59.3443 20.8333 58.3333C20.8377 57.6061 21.0323 56.8928 21.3978 56.2641C21.7633 55.6355 22.2869 55.1135 22.9167 54.7499L25 53.5416V45.8333C25 44.7282 25.439 43.6684 26.2204 42.887C27.0018 42.1056 28.0616 41.6666 29.1667 41.6666H70.8333C71.9384 41.6666 72.9982 42.1056 73.7796 42.887C74.561 43.6684 75 44.7282 75 45.8333V66.6666H57.9583C57.5801 65.6059 56.9223 64.6671 56.0544 63.9494C55.1866 63.2317 54.1409 62.7619 53.0281 62.5895C51.9152 62.4172 50.7764 62.5487 49.7321 62.9702C48.6878 63.3917 47.7768 64.0875 47.0954 64.9841C46.414 65.8807 45.9875 66.9447 45.861 68.0638C45.7345 69.1828 45.9127 70.3152 46.3767 71.3413C46.8408 72.3674 47.5734 73.249 48.4972 73.893C49.4211 74.537 50.5017 74.9195 51.625 74.9999H83.3333C85.5435 74.9999 87.6631 74.1219 89.2259 72.5591C90.7887 70.9963 91.6667 68.8767 91.6667 66.6666V58.3333C91.6667 56.1231 90.7887 54.0035 89.2259 52.4407C87.6631 50.8779 85.5435 49.9999 83.3333 49.9999V41.6666C83.3333 32.826 79.8214 24.3476 73.5702 18.0964C67.319 11.8451 58.8405 8.33325 50 8.33325Z" fill="#1E3A8A"/>
</g>
<defs>
<clipPath id="clip0_20_374">
<rect width="100" height="100" fill="white"/>
</clipPath>
</defs>
</svg>
