<svg width="100" height="100" viewBox="0 0 100 100" fill="none" xmlns="http://www.w3.org/2000/svg">
<path d="M90.2159 41.6051C91.479 42.1419 91.479 43.0209 90.2159 43.5525L52.3001 59.6472C50.8136 60.1833 49.1865 60.1833 47.7001 59.6472L9.78428 43.5577C8.52112 43.0209 8.52112 42.1367 9.78428 41.6051L47.7001 25.5103C49.1865 24.9738 50.8137 24.9738 52.3001 25.5103L90.2159 41.6051ZM54.2527 64.2524L75.2159 55.3577V66.3103C75.2159 73.6472 63.9264 79.5946 50.0001 79.5946C36.0738 79.5946 24.7895 73.6472 24.7895 66.3103V55.3525L45.7474 64.2472C48.4824 65.3126 51.5177 65.3126 54.2527 64.2472V64.2524ZM80.2527 73.0788H88.8948V67.3367C88.9151 66.7562 88.8182 66.1776 88.6101 65.6353C88.4019 65.093 88.0867 64.5983 87.6832 64.1804C87.2797 63.7626 86.7962 63.4303 86.2615 63.2034C85.7269 62.9764 85.152 62.8595 84.5711 62.8595C83.9903 62.8595 83.4154 62.9764 82.8807 63.2034C82.3461 63.4303 81.8626 63.7626 81.4591 64.1804C81.0556 64.5983 80.7404 65.093 80.5322 65.6353C80.324 66.1776 80.2272 66.7562 80.2474 67.3367L80.2527 73.0788ZM84.5685 54.1156C85.1454 54.1166 85.7097 53.9465 86.1898 53.6268C86.67 53.307 87.0446 52.852 87.2661 52.3193C87.4876 51.7866 87.5461 51.2002 87.4342 50.6342C87.3222 50.0683 87.045 49.5482 86.6374 49.1399C86.2298 48.7316 85.7103 48.4534 85.1445 48.3404C84.5788 48.2275 83.9922 48.2849 83.4592 48.5055C82.9261 48.726 82.4704 49.0997 82.1497 49.5793C81.8291 50.059 81.658 50.6229 81.658 51.1998C81.658 51.9731 81.9652 52.7148 82.512 53.2616C83.0588 53.8084 83.8004 54.1156 84.5738 54.1156H84.5685ZM84.5685 61.563C85.1452 61.564 85.7092 61.394 86.1893 61.0745C86.6694 60.755 87.0439 60.3003 87.2656 59.7679C87.4872 59.2355 87.546 58.6493 87.4345 58.0835C87.3231 57.5177 87.0463 56.9977 86.6392 56.5891C86.2322 56.1806 85.7132 55.902 85.1478 55.7885C84.5824 55.6749 83.996 55.7316 83.4628 55.9513C82.9296 56.1711 82.4735 56.544 82.1523 57.0229C81.831 57.5018 81.659 58.0652 81.658 58.6419C81.6573 59.0253 81.7322 59.405 81.8784 59.7594C82.0246 60.1137 82.2393 60.4358 82.5101 60.7071C82.7809 60.9784 83.1026 61.1937 83.4567 61.3405C83.8108 61.4874 84.1904 61.563 84.5738 61.563H84.5685Z" fill="#1D3783"/>
</svg>
