<svg width="100" height="100" viewBox="0 0 100 100" fill="none" xmlns="http://www.w3.org/2000/svg">
<g clip-path="url(#clip0_20_433)">
<path d="M88.889 13.8887H11.1112C8.04177 13.8887 5.55566 16.3748 5.55566 19.4442V80.5553C5.55566 83.6248 8.04177 86.1109 11.1112 86.1109H88.889C91.9584 86.1109 94.4445 83.6248 94.4445 80.5553V19.4442C94.4445 16.3748 91.9584 13.8887 88.889 13.8887ZM11.1112 80.5553V19.4442H88.889V80.5553H11.1112Z" fill="#1E3A8A"/>
<path d="M43.3887 42.2831L26.6721 66.5776L15.4165 56.622L18.3609 53.2942L25.8554 59.922L43.4276 34.3887L62.1776 62.2081L80.9387 37.4165L84.4832 40.0998L61.9665 69.847L43.3887 42.2831Z" fill="#1E3A8A"/>
</g>
<defs>
<clipPath id="clip0_20_433">
<rect width="100" height="100" fill="white"/>
</clipPath>
</defs>
</svg>
