<svg width="100" height="100" viewBox="0 0 100 100" fill="none" xmlns="http://www.w3.org/2000/svg">
<g clip-path="url(#clip0_20_347)">
<path d="M79.1667 87.5001H20.8334V20.8334H29.1667V29.1667H70.8334V20.8334H79.1667V29.8834L83.3334 25.7167V16.6667H70.8334V12.5001H58.3334C58.3334 10.2899 57.4554 8.17033 55.8926 6.60752C54.3298 5.04472 52.2102 4.16675 50.0001 4.16675C47.7899 4.16675 45.6703 5.04472 44.1075 6.60752C42.5447 8.17033 41.6667 10.2899 41.6667 12.5001H29.1667V16.6667H16.6667V91.6667H83.3334V49.2834L79.1667 53.4501V87.5001ZM33.3334 16.6667H45.8334V10.8959C45.8334 10.217 46.1028 9.56587 46.5825 9.08542C47.0621 8.60498 47.7129 8.33452 48.3917 8.33341H51.6042C52.2839 8.33341 52.9356 8.60339 53.4162 9.08395C53.8968 9.56452 54.1667 10.2163 54.1667 10.8959V16.6667H66.6667V25.0001H33.3334V16.6667ZM94.3584 23.5251L97.3042 26.4709L60.4167 63.3626L44.3584 47.3042L47.3042 44.3584L60.4167 57.4709L94.3584 23.5251Z" fill="#1E3A8A"/>
</g>
<defs>
<clipPath id="clip0_20_347">
<rect width="100" height="100" fill="white"/>
</clipPath>
</defs>
</svg>
