<svg width="100" height="100" viewBox="0 0 100 100" fill="none" xmlns="http://www.w3.org/2000/svg">
<g clip-path="url(#clip0_20_369)">
<path d="M25 8.33325V16.6666H20.8333C16.25 16.6666 12.5 20.4166 12.5 24.9999V83.3333C12.5 87.9166 16.25 91.6666 20.8333 91.6666H79.1667C83.75 91.6666 87.5 87.9166 87.5 83.3333V24.9999C87.5 20.4166 83.75 16.6666 79.1667 16.6666H75V8.33325H66.6667V16.6666H33.3333V8.33325H25ZM20.8333 37.4999H79.1667V83.3333H20.8333V37.4999Z" fill="#1E3A8A"/>
<path d="M66.2502 76.2499L56.2502 69.9999L45.8335 76.2499L48.3335 64.9999L39.5835 57.4999L51.2502 56.6666L55.8335 45.8333L60.4168 56.6666L72.0835 57.9166L63.3335 65.4166L66.2502 76.2499Z" fill="#1E3A8A"/>
</g>
<defs>
<clipPath id="clip0_20_369">
<rect width="100" height="100" fill="white"/>
</clipPath>
</defs>
</svg>
