<svg width="100" height="100" viewBox="0 0 100 100" fill="none" xmlns="http://www.w3.org/2000/svg">
<path d="M84.6582 16.5918L51.4746 5.2832C51.0742 5.14648 50.5371 5.07812 50 5.07812C49.4629 5.07812 48.9258 5.14648 48.5254 5.2832L15.3418 16.5918C14.5313 16.8652 13.8672 17.8027 13.8672 18.6621V65.7715C13.8672 66.6309 14.4238 67.7637 15.0977 68.3008L48.7598 94.5312C49.1016 94.7949 49.541 94.9316 49.9902 94.9316C50.4395 94.9316 50.8887 94.7949 51.2207 94.5312L84.8828 68.3008C85.5566 67.7734 86.1133 66.6406 86.1133 65.7715V18.6621C86.1328 17.8027 85.4688 16.875 84.6582 16.5918ZM61.2109 54.1016C56.4746 58.8379 49.1992 59.4922 43.7695 56.0644L36.2012 63.6328C36.0543 63.7782 35.8561 63.8598 35.6494 63.8598C35.4428 63.8598 35.2445 63.7782 35.0977 63.6328L31.7773 60.3125C31.632 60.1657 31.5504 59.9674 31.5504 59.7607C31.5504 59.5541 31.632 59.3558 31.7773 59.209L39.3457 51.6406C35.918 46.2012 36.5723 38.9355 41.3086 34.1992C46.8066 28.7012 55.7129 28.7012 61.2109 34.1992C66.709 39.6973 66.709 48.6035 61.2109 54.1016ZM45.7285 49.6807C46.4528 50.4164 47.3156 51.0014 48.2671 51.4021C49.2186 51.8028 50.24 52.0111 51.2724 52.0151C52.3048 52.0192 53.3278 51.8188 54.2824 51.4255C55.2369 51.0323 56.1042 50.4539 56.8342 49.7239C57.5642 48.9938 58.1425 48.1265 58.5356 47.1718C58.9288 46.2172 59.1291 45.1942 59.125 44.1618C59.1209 43.1294 58.9125 42.108 58.5117 41.1566C58.111 40.2051 57.5258 39.3424 56.79 38.6182C56.0658 37.8825 55.203 37.2974 54.2515 36.8967C53.3 36.4961 52.2786 36.2877 51.2462 36.2837C50.2138 36.2797 49.1908 36.4801 48.2362 36.8733C47.2816 37.2666 46.4143 37.8449 45.6843 38.575C44.9543 39.305 44.3761 40.1724 43.9829 41.127C43.5898 42.0816 43.3894 43.1046 43.3936 44.137C43.3977 45.1694 43.6061 46.1908 44.0069 47.1423C44.4076 48.0937 44.9927 48.9564 45.7285 49.6807Z" fill="#1E3A8A"/>
</svg>
