<svg width="40" height="40" viewBox="0 0 40 40" fill="none" xmlns="http://www.w3.org/2000/svg">
<path fill-rule="evenodd" clip-rule="evenodd" d="M27.3593 40C22.4971 40 15.5807 39.7508 10.9682 39.7508C2.34158 39.7508 0 34.5603 0 27.9607C0 21.3612 0.127209 14.0618 0.127209 11.56C0.127209 4.14569 3.35454 0.0287569 11.3545 0.0287569C14.3133 0.0287569 25.4417 0 29.2297 0C36.5088 0 40 3.05774 40 12.0105C40 14.2199 39.8398 18.3561 39.8398 29.8251C39.8398 37.0381 36.49 40 27.3593 40ZM34.8975 14.3541L29.894 10.7309L22.5347 18.984L22.7609 11.6511L15.9011 11.536L16.702 14.2152L16.8622 22.3629C14.3651 21.9219 11.3216 15.5523 11.5147 11.8188L4.97998 11.9099C6.57244 25.0468 16.1178 31.4259 22.2097 30.5248L22.3557 25.6746C22.8269 25.4446 23.4676 25.0899 24.2403 24.6202L28.6455 30.5009L35.8916 30.1031L28.9517 21.1934C31.2816 19.2514 33.2905 16.9426 34.9022 14.3541H34.8975Z" fill="black"/>
</svg>
